<?xml version="1.0" encoding="UTF-8"?>
<svg width="18px" height="18px" viewBox="0 0 18 18" version="1.1" xmlns="http://www.w3.org/2000/svg" xmlns:xlink="http://www.w3.org/1999/xlink">
    <title>E692D69F-AC8F-4983-98A2-9DB83E09F735@0.0x</title>
    <g id="化学公式" stroke="none" stroke-width="1" fill="none" fill-rule="evenodd">
        <g id="化学公式结构式编辑器" transform="translate(-1074, -3094)" fill="#FFFFFF" stroke="#979797">
            <g id="空间填充模型" transform="translate(1074, 3094)">
                <g transform="translate(9.5183, 9.5147) rotate(33) translate(-9.5183, -9.5147)translate(2.4992, 2.5147)">
                    <path d="M6.34284037,0.5 C6.8470462,0.5 7.30288485,0.710892069 7.63308802,1.04993064 C7.96800674,1.39381094 8.17408301,1.86917076 8.17408301,2.3936208 C8.17408301,2.91807083 7.96800674,3.39343066 7.63308802,3.73731096 C7.30288485,4.07634953 6.8470462,4.2872416 6.34284037,4.2872416 C5.83863454,4.2872416 5.38279589,4.07634953 5.05259272,3.73731096 C4.71767399,3.39343066 4.51159773,2.91807083 4.51159773,2.3936208 C4.51159773,1.86917076 4.71767399,1.39381094 5.05259272,1.04993064 C5.38279589,0.710892069 5.83863454,0.5 6.34284037,0.5 Z" id="椭圆形备份-3"></path>
                    <ellipse id="椭圆形备份-4" cx="3.70404865" cy="11.6063792" rx="1.83124264" ry="1.8936208"></ellipse>
                    <ellipse id="椭圆形" cx="5.43956616" cy="7.14781121" rx="4.93956616" ry="5.0851152"></ellipse>
                    <path d="M8.53418619,4.37844812 C9.29409933,3.80750272 10.2098678,3.55557583 11.1060088,3.78495911 C12.0059556,4.01537333 12.7015063,4.68265085 13.1130801,5.55661075 C13.5469929,6.47800672 13.6685355,7.62997563 13.3861629,8.79281385 C13.1044496,9.95293731 12.4726384,10.9098128 11.6699167,11.5129215 C10.9100035,12.0838669 9.99423504,12.3357938 9.09809404,12.1064105 C8.19814724,11.8759963 7.50259656,11.2087188 7.09102278,10.3347589 C6.65710994,9.4133629 6.53556742,8.26139399 6.81793998,7.09855577 C7.09965331,5.93843231 7.73146449,4.98155685 8.53418619,4.37844812 Z" id="椭圆形备份-2"></path>
                </g>
            </g>
        </g>
    </g>
</svg>