<?xml version="1.0" encoding="UTF-8"?>
<svg width="12px" height="12px" viewBox="0 0 12 12" version="1.1" xmlns="http://www.w3.org/2000/svg" xmlns:xlink="http://www.w3.org/1999/xlink">
    <title>1C146DA4-7E0C-42FB-8D47-9573A4702539@0.0x</title>
    <g id="化学公式" stroke="none" stroke-width="1" fill="none" fill-rule="evenodd">
        <g id="化学公式结构式编辑器" transform="translate(-1625, -3097)" fill="#0A93FC" fill-rule="nonzero">
            <g id="编组-4备份-3" transform="translate(1617, 3091)">
                <g id="全屏" transform="translate(7.9938, 6)">
                    <path d="M4.20489502,0 L4.20489502,1.5 L1.499,1.5 L1.5,4.19866943 L-5.10702591e-15,4.19866943 L-5.32907052e-15,5.37499477e-15 L4.20489502,0 Z M7.80133057,0 L7.80133057,1.5 L10.5072256,1.5 L10.5062256,4.19866943 L12.0062256,4.19866943 L12.0062256,5.37499477e-15 L7.80133057,0 Z M4.20489502,11.9986694 L4.20489502,10.4986694 L1.499,10.4986694 L1.5,7.8 L-5.10702591e-15,7.8 L-5.32907052e-15,11.9986694 L4.20489502,11.9986694 Z M7.80133057,11.9986694 L7.80133057,10.4986694 L10.5072256,10.4986694 L10.5062256,7.8 L12.0062256,7.8 L12.0062256,11.9986694 L7.80133057,11.9986694 Z" id="形状结合"></path>
                </g>
            </g>
        </g>
    </g>
</svg>
