<?xml version="1.0" encoding="UTF-8"?>
<svg width="14px" height="14px" viewBox="0 0 14 14" version="1.1" xmlns="http://www.w3.org/2000/svg" xmlns:xlink="http://www.w3.org/1999/xlink">
    <title>E824A11B-7115-4166-93B5-695703604693@0.0x</title>
    <g id="化学公式" stroke="none" stroke-width="1" fill="none" fill-rule="evenodd">
        <g id="化学公式结构式编辑器" transform="translate(-1196, -3096)" fill-rule="nonzero">
            <g id="播放" transform="translate(1189, 3091)">
                <g transform="translate(7, 5)" id="路径">
                    <path d="M7,0.5 C8.7949187,0.5 10.4199186,1.2275394 11.596189,2.40380689 C12.7724589,3.58007394 13.5,5.20506918 13.5,6.99998288 C13.5,8.79491754 12.7724624,10.4199189 11.5961961,11.5961881 C10.4199252,12.7724619 8.79492226,13.5 7,13.5 C5.20506589,13.5 3.58006587,12.7724658 2.40379951,11.5961966 C1.22753242,10.4199266 0.5,8.79492159 0.5,6.99998288 C0.5,5.20506124 1.22753657,3.58006565 2.40380462,2.40380047 C3.58007312,1.22753485 5.20507335,0.5 7,0.5 Z" stroke="#999999" opacity="0.98999995"></path>
                    <path d="M10.1774786,6.50388283 C9.0881439,5.7626681 7.11284442,4.65324222 5.98809719,3.96582229 C5.52696349,3.67502568 5.13918807,3.79180644 5.10197834,4.30541591 C5.07500385,5.68107732 5.10197834,8.33537092 5.10197834,9.73484033 C5.12537562,10.2562375 5.58507161,10.3250085 5.98404074,10.1156658 C7.10752141,9.43498949 9.03843963,8.26516212 10.167637,7.58102842 C10.1602772,7.57654409 11.0250013,7.1009487 10.1774786,6.50388283 L10.1774786,6.50388283 Z" fill="#999999"></path>
                </g>
            </g>
        </g>
    </g>
</svg>