<?xml version="1.0" encoding="UTF-8"?>
<svg width="15px" height="12px" viewBox="0 0 15 12" version="1.1" xmlns="http://www.w3.org/2000/svg" xmlns:xlink="http://www.w3.org/1999/xlink">
    <title>547148A8-5A8C-4444-81EE-8A9FDCB53D54@0.0x</title>
    <g id="化学公式" stroke="none" stroke-width="1" fill="none" fill-rule="evenodd">
        <g id="化学公式结构式编辑器" transform="translate(-1660, -3045)" fill="#979797" fill-rule="nonzero">
            <g id="编组-4备份-6" transform="translate(1653, 3039)">
                <g id="重置" transform="translate(7, 6)">
                    <path d="M9.815968,9.7326585 C9.02273554,10.2882738 8.09493201,10.5671284 7.14570963,10.554342 C7.02130051,10.5527112 6.89699549,10.5464415 6.77305373,10.5355461 C6.72257559,10.530943 6.67211343,10.5227917 6.62165128,10.5166702 C6.52478696,10.5034044 6.42793863,10.490666 6.3331043,10.4723015 C6.27498571,10.4610815 6.21790609,10.4463133 6.1607945,10.4325519 C6.06803813,10.4111348 5.97627277,10.3892062 5.88602591,10.362179 C5.84218122,10.3489611 5.79987102,10.3336494 5.7565538,10.3188812 C5.65256053,10.2841982 5.54853528,10.2480288 5.44812247,10.2057059 C5.42518512,10.1965317 5.40325478,10.1858071 5.38033343,10.175626 C5.26256176,10.1236494 5.14582906,10.0690996 5.03315636,10.0079169 C5.0275459,10.0053596 5.02294245,10.0028343 5.01733199,9.99976558 C4.63601265,9.79026105 4.28682157,9.52876399 3.98043621,9.22289824 C3.97532127,9.2183431 3.97074978,9.21273308 3.96513932,9.20661161 C3.86983438,9.11127475 3.77915828,9.01142103 3.69342372,8.90739478 C3.67507384,8.88546617 3.65773097,8.86149174 3.63939708,8.83855621 C3.01591694,8.05862014 2.64022405,7.07178476 2.64022405,5.99824188 L3.84025468,5.99824188 L1.9198636,3.11816196 L0,5.99824188 L1.20004662,5.99824188 C1.20004662,7.26039957 1.59412136,8.43078316 2.2624532,9.39775173 C2.27060515,9.41152904 2.27619962,9.42578583 2.28539054,9.4390357 C2.35471407,9.5379382 2.43169403,9.62971231 2.505621,9.72298881 C2.53365731,9.75811934 2.55964764,9.79486414 2.58819544,9.8294992 C2.69779917,9.96255727 2.81405234,10.0869206 2.93332653,10.2093021 C2.94505894,10.2210176 2.95576836,10.2332286 2.96646179,10.2444646 C3.36766549,10.6456367 3.82137733,10.9841076 4.31487386,11.2547469 C4.32810879,11.2624188 4.34086419,11.2705701 4.35461061,11.2777144 C4.49683812,11.3536654 4.6426461,11.4229995 4.79099556,11.4882099 C4.8282068,11.504033 4.86388356,11.521886 4.9016063,11.5376612 C5.02804141,11.5901971 5.158041,11.6360522 5.28906358,11.6798775 C5.35125815,11.7007832 5.41294122,11.7227118 5.47564728,11.7415717 C5.59033399,11.7757112 5.70709865,11.8042728 5.82536583,11.8318114 C5.90384831,11.8501279 5.98137173,11.8700426 6.06086122,11.8847949 C6.09401247,11.8919712 6.12510176,11.9021364 6.15823703,11.907219 C6.26935927,11.9271018 6.38153646,11.9378103 6.49267468,11.9515717 C6.53292292,11.9561588 6.57219613,11.9627917 6.61246036,11.9673948 C6.81282245,11.9867661 7.01265705,12 7.21199615,12 C8.43139965,12 9.62123236,11.626878 10.6423357,10.9122003 C10.9675984,10.6833245 11.0465924,10.2352424 10.8187375,9.9089984 C10.5903391,9.58281833 10.1412147,9.50431007 9.815968,9.7326585 M13.2004649,5.99824188 C13.1999534,4.73969632 12.8084361,3.57185402 12.1431573,2.60638785 C12.1334548,2.58957379 12.1273489,2.57325519 12.1161439,2.55743207 C12.0335695,2.43968567 11.9433546,2.32956313 11.8535873,2.21947256 C11.8428779,2.20571124 11.8332074,2.19193394 11.822514,2.17871604 C11.2133077,1.43955248 10.4491506,0.869152904 9.58248663,0.496510389 C9.55854228,0.485801811 9.53510943,0.474086308 9.51113311,0.463889185 C9.37299756,0.407309536 9.23124958,0.356835376 9.08851057,0.30893447 C9.03752094,0.292104422 8.98705878,0.273755994 8.93455065,0.257948855 C8.81067301,0.22072456 8.68476538,0.189653703 8.55732327,0.160596697 C8.48747226,0.144773575 8.41714173,0.126936601 8.34626774,0.112663825 C8.31110248,0.1060309 8.27793524,0.0953223229 8.24328147,0.0892168354 C8.14846313,0.0728982419 8.05313329,0.0657538625 7.95831495,0.0535269046 C7.89255591,0.0453755994 7.82831536,0.0351465104 7.76202884,0.0285295685 C7.60247444,0.0132498668 7.44445453,0.00712839638 7.28590714,0.00407565264 C7.25735934,0.00407565264 7.22932304,0 7.20026374,0 C7.19514879,0 7.19057731,0.00151838039 7.18549433,0.00151838039 C5.96709783,0.00252530634 4.77929512,0.370053277 3.75971024,1.08474694 C3.43395202,1.31258391 3.35494206,1.76114544 3.58281298,2.08740543 C3.8101724,2.41364944 4.26033574,2.4921577 4.58558246,2.26379329 C5.37320447,1.71222163 6.29183307,1.43339904 7.23394247,1.44156633 C7.36953654,1.44257326 7.50311659,1.44920618 7.63463468,1.46194459 C7.67539442,1.46654768 7.71567463,1.4721577 7.75595484,1.47725626 C7.86400811,1.49050613 7.97210933,1.50578583 8.07763709,1.52669153 C8.12453477,1.53584976 8.17042544,1.54810868 8.21631611,1.55828982 C8.32030938,1.5817528 8.42379117,1.60671817 8.52524295,1.63730954 C8.55737122,1.64750666 8.588972,1.65922216 8.6210683,1.66993074 C8.73730548,1.70765051 8.85100118,1.748439 8.96313042,1.79482152 C8.97436732,1.79993607 8.98606776,1.8055301 8.99728868,1.81011721 C9.66817799,2.09862547 10.2564769,2.54314331 10.7163107,3.09877464 C10.7188681,3.10232286 10.7219051,3.10692595 10.7244626,3.10997869 C11.3703686,3.89651572 11.7598559,4.9027544 11.7603354,5.99820991 L10.5598093,5.99820991 L12.4801844,8.87781034 L14.4,5.99824188 L13.2004489,5.99824188 L13.2004649,5.99824188 Z" id="形状"></path>
                </g>
            </g>
        </g>
    </g>
</svg>
