<?xml version="1.0" encoding="UTF-8"?>
<svg width="18px" height="18px" viewBox="0 0 18 18" version="1.1" xmlns="http://www.w3.org/2000/svg" xmlns:xlink="http://www.w3.org/1999/xlink">
    <title>E0EDDABA-44B6-46EF-9F70-3FEE8CCD82BB@0.0x</title>
    <g id="化学公式" stroke="none" stroke-width="1" fill="none" fill-rule="evenodd">
        <g id="化学公式结构式编辑器" transform="translate(-1098, -3094)" fill="#FFFFFF" fill-rule="nonzero" stroke="#979797">
            <g id="棍模型" transform="translate(1098, 3094)">
                <path d="M4.65154398,2.50184331 C4.9877865,2.51977668 5.29835107,2.66631828 5.52430746,2.9161766 L15.0026021,13.4058174 C15.1566478,13.5761582 15.2458123,13.8861956 15.3136302,14.3099247 C15.2015429,14.7247581 15.080165,15.0241713 14.9090136,15.1779274 C14.6686114,15.3940212 14.3663308,15.5 14.0653592,15.5 C13.7201906,15.5 13.3759994,15.3601641 13.1267114,15.0848406 L3.64864093,4.59388468 C3.41660107,4.33691577 3.3110512,4.00981277 3.327897,3.68918333 C3.34473556,3.36869168 3.48388431,3.05458053 3.74187301,2.82315886 C3.9923372,2.59815119 4.3146768,2.48393652 4.65154398,2.50184331 Z" id="路径"></path>
            </g>
        </g>
    </g>
</svg>