<?xml version="1.0" encoding="UTF-8"?>
<svg width="18px" height="18px" viewBox="0 0 18 18" version="1.1" xmlns="http://www.w3.org/2000/svg" xmlns:xlink="http://www.w3.org/1999/xlink">
    <title>58C5DA4C-F493-4B5B-8D90-B995919126F6@0.0x</title>
    <g id="化学公式" stroke="none" stroke-width="1" fill="none" fill-rule="evenodd">
        <g id="化学公式结构式编辑器" transform="translate(-1122, -3094)">
            <g id="球棍模型" transform="translate(1122, 3094)">
                <rect id="矩形备份-5" x="0" y="0" width="18" height="18" rx="2"></rect>
                <g id="编组-5" transform="translate(2, 3)" stroke-width="0.844460178">
                    <path d="M9.3696273,5.57028438 L9.34759943,8.99563223 L8.49685056,9.00114419 L8.51887844,5.57579634 L9.3696273,5.57028438 Z" id="矩形" stroke="#0A93FC" fill="#D8D8D8" transform="translate(8.9332, 7.2857) rotate(-30) translate(-8.9332, -7.2857)"></path>
                    <path d="M10.4624904,1.59774529 L10.459839,4.97575892 L9.59008371,4.97643156 L9.59273514,1.59841792 L10.4624904,1.59774529 Z" id="矩形" stroke="#0A93FC" fill="#D8D8D8" transform="translate(10.0263, 3.2871) rotate(-87) translate(-10.0263, -3.2871)"></path>
                    <path d="M3.67511262,4.14788303 L4.52998496,4.15416604 L4.55501902,7.56915095 L3.70014668,7.56286794 L3.67511262,4.14788303 Z" id="矩形备份-2" stroke="#0A93FC" fill="#D8D8D8" transform="translate(4.1151, 5.8585) rotate(-140) translate(-4.1151, -5.8585)"></path>
                    <ellipse id="椭圆形" stroke="#0A93FC" fill="#FFFFFF" cx="6.3998584" cy="3.42857143" rx="2.95561062" ry="3.00634134"></ellipse>
                    <path d="M2.11115044,6.43478589 C2.5768216,6.43478589 2.99811344,6.62686355 3.30318054,6.93651237 C3.61050874,7.24845623 3.8000708,7.67954656 3.8000708,8.15541295 C3.8000708,8.63127933 3.61050874,9.06236967 3.30318054,9.37431353 C2.99811344,9.68396234 2.5768216,9.87604 2.11115044,9.87604 C1.64547929,9.87604 1.22418745,9.68396234 0.919120345,9.37431353 C0.611792149,9.06236967 0.422230089,8.63127933 0.422230089,8.15541295 C0.422230089,7.67954656 0.611792149,7.24845623 0.919120345,6.93651237 C1.22418745,6.62686355 1.64547929,6.43478589 2.11115044,6.43478589 Z" id="椭圆形备份-5" stroke="#0A93FC" fill="#FFFFFF"></path>
                    <ellipse id="椭圆形备份-6" stroke="#0A93FC" fill="#FFFFFF" cx="11.8888496" cy="3" rx="1.68892036" ry="1.72062705"></ellipse>
                    <ellipse id="椭圆形备份-7" stroke="#0A93FC" fill="#FFFFFF" cx="9.77769911" cy="9.42857143" rx="2.11115044" ry="2.14919848"></ellipse>
                </g>
            </g>
        </g>
    </g>
</svg>
