<?xml version="1.0" encoding="UTF-8"?>
<svg width="12px" height="12px" viewBox="0 0 12 12" version="1.1" xmlns="http://www.w3.org/2000/svg" xmlns:xlink="http://www.w3.org/1999/xlink">
    <title>0742B0E8-BD60-4273-B3C3-41EB1813E079@0.0x</title>
    <g id="化学公式" stroke="none" stroke-width="1" fill="none" fill-rule="evenodd">
        <g id="化学公式结构式编辑器" transform="translate(-1697, -3097)" fill="#D8D8D8" stroke="#979797">
            <g id="编组-4备份" transform="translate(1689, 3091)">
                <path d="M13.6464466,6.64644661 C14.1380712,6.5 14.2630712,6.55596441 14.3535534,6.64644661 C14.4440356,6.73692881 14.5,6.86192881 14.5,7 L14.5,11.5 L19,11.5 C19.1380712,11.5 19.2630712,11.5559644 19.3535534,11.6464466 C19.4440356,11.7369288 19.5,11.8619288 19.5,12 C19.5,12.1380712 19.4440356,12.2630712 19.3535534,12.3535534 C19.2630712,12.4440356 19.1380712,12.5 19,12.5 L14.5,12.5 L14.5,17 C14.5,17.1380712 14.4440356,17.2630712 14.3535534,17.3535534 C14.2630712,17.4440356 14.1380712,17.5 14,17.5 C13.8619288,17.5 13.7369288,17.4440356 13.6464466,17.3535534 C13.5559644,17.2630712 13.5,17.1380712 13.5,17 L13.5,12.5 L9,12.5 C8.86192881,12.5 8.73692881,12.4440356 8.64644661,12.3535534 C8.55596441,12.2630712 8.5,12.1380712 8.5,12 C8.5,11.8619288 8.55596441,11.7369288 8.64644661,11.6464466 C8.73692881,11.5559644 8.86192881,11.5 9,11.5 L13.5,11.5 L13.5,7 C13.5,6.86192881 13.5559644,6.73692881 13.6464466,6.64644661 Z" id="放大"></path>
            </g>
        </g>
    </g>
</svg>